<svg width="901" height="754" viewBox="0 0 901 754" fill="none" xmlns="http://www.w3.org/2000/svg">
<g filter="url(#filter0_d_63_53)">
<g opacity="0.3">
<path d="M466.313 651.786C269.309 651.786 109.607 631.665 109.607 606.843C109.607 582.022 269.309 561.9 466.313 561.9C663.316 561.9 823.019 582.022 823.019 606.843C823.019 631.665 663.316 651.786 466.313 651.786Z" fill="url(#paint0_linear_63_53)" style="mix-blend-mode:lighten"/>
</g>
<path d="M714.043 337.684C714.043 337.684 767.044 365.871 773.959 430.822C780.874 495.773 800.403 621.199 656.626 614.046C512.849 606.893 445.049 597.99 478.949 476.015C512.849 354.041 714.043 337.684 714.043 337.684Z" fill="url(#paint1_linear_63_53)"/>
<path opacity="0.09" d="M719.471 371.423C720.957 380.589 719.929 390.039 716.519 398.548C713.109 407.057 707.475 414.232 700.347 419.142C680.841 433.423 650.792 484.168 627.524 509.829C623.893 513.826 621.024 518.595 619.089 523.85C617.154 529.105 616.192 534.739 616.261 540.416C616.261 545.043 614.572 550.17 609.076 555.172C592.903 569.853 525.035 577.181 487.081 532.013C449.126 486.845 499.177 464.485 499.177 464.485L665.997 364.22L719.471 371.423Z" fill="black"/>
<path d="M350.714 592.537C350.714 592.537 347.178 602.541 338.303 604.692C329.428 606.843 324.608 619.048 344.002 617.197C363.396 615.347 374.05 618.598 371.257 606.768C368.464 594.938 369.725 593.163 369.725 593.163L350.714 592.537Z" fill="url(#paint2_linear_63_53)"/>
<path d="M480.954 584.209C480.954 584.209 482.441 594.738 475.841 601.716C469.241 608.694 470.637 621.724 486.427 609.219C502.217 596.714 512.917 593.438 505.101 584.834C497.284 576.231 497.555 573.98 497.555 573.98L480.954 584.209Z" fill="url(#paint3_linear_63_53)"/>
<path d="M464.015 434.523C464.015 434.523 345.421 435.874 346.57 592.913L374.546 598.19C374.546 598.19 379.929 432.347 534.045 511.354L526.004 446.028L464.015 434.523Z" fill="#24285B"/>
<path opacity="0.09" d="M464.015 434.523C464.015 434.523 345.421 435.874 346.57 592.913L374.546 598.19C374.546 598.19 379.929 432.347 534.045 511.354L526.004 446.028L464.015 434.523Z" fill="url(#paint4_linear_63_53)"/>
<path d="M454.712 289.965L444.418 293.016L451.739 284.262L454.712 289.965Z" fill="#7405BA"/>
<path d="M616.487 367.696C616.487 367.696 595.989 425.22 545.961 415.09C495.933 404.961 476.922 288.439 476.922 288.439C476.922 288.439 457.145 274.158 466.718 258.227C476.291 242.295 491.856 276.759 491.856 276.759C491.856 276.759 513.412 374.949 560.062 343.111L616.487 367.696Z" fill="url(#paint5_linear_63_53)"/>
<path d="M615.856 250.849L605.044 253.35C605.044 253.35 521.476 303.72 537.019 354.166C552.561 404.611 518.616 452.506 518.616 452.506L591.281 509.329C591.281 509.329 686.202 457.032 671.988 312.974C671.988 312.974 665.389 245.872 615.856 250.849Z" fill="#7405BA"/>
<path d="M423.813 279.328L437.515 272.012L493.769 401.909L480.066 409.225L423.813 279.328Z" fill="url(#paint6_linear_63_53)"/>
<path opacity="0.58" d="M229.755 582.083C229.755 582.083 252.82 575.08 257.844 551.246C257.844 551.246 222.096 543.217 221.083 584.184L229.755 582.083Z" fill="#B154F0"/>
<path opacity="0.73" d="M226.984 579.582C226.984 579.582 243.112 551.296 228.922 524.835C228.922 524.835 201.734 543.993 213.807 579.657L226.984 579.582Z" fill="#3B10DE"/>
<path d="M222.84 579.539C222.84 579.539 214.325 549.652 188.579 544C188.579 544 183.737 563.408 205.248 579.614L222.84 579.539Z" fill="#B154F0"/>
<path d="M239.576 578.857L234.891 614.396L205.428 614.521L201.081 579.032L239.576 578.857Z" fill="#24285B"/>
<path opacity="0.66" d="M316 61H479.487V188.101H316V61Z" fill="url(#paint7_linear_63_53)"/>
<path opacity="0.43" d="M177 294H324.651V408.797H177V294Z" fill="url(#paint8_linear_63_53)"/>
<path d="M436.351 120.074C425.814 120.074 417.273 110.59 417.273 98.8903C417.273 87.191 425.814 77.7068 436.351 77.7068C446.888 77.7068 455.43 87.191 455.43 98.8903C455.43 110.59 446.888 120.074 436.351 120.074Z" fill="url(#paint9_linear_63_53)"/>
<path d="M619.821 187.573L634.867 246.472L605.044 253.35L606.058 207.731L619.821 187.573Z" fill="url(#paint10_linear_63_53)"/>
<path opacity="0.31" d="M605.45 217.71C609.069 216.143 612.199 213.441 614.46 209.932C614.46 209.932 615.225 221.112 605.45 233.542V217.71Z" fill="#CE8172"/>
<path d="M588.939 189.424C588.939 189.424 590.425 208.032 595.156 219.661C595.612 220.795 596.268 221.816 597.084 222.666C597.9 223.515 598.86 224.176 599.908 224.609C600.957 225.042 602.072 225.239 603.19 225.188C604.308 225.137 605.405 224.84 606.418 224.313C611.666 221.587 618.041 216.21 618.334 206.131L620.721 189.099C620.872 185.632 620.052 182.198 618.374 179.269C616.696 176.341 614.243 174.061 611.351 172.742C600.764 166.915 587.52 178.019 588.939 189.424Z" fill="url(#paint11_linear_63_53)"/>
<path d="M609.053 201.579C609.053 201.579 608.04 194.476 612.928 194.076C617.816 193.676 619.325 203.93 612.928 206.156L609.053 201.579Z" fill="#7DC5C7"/>
<path d="M590.425 200.954L586.934 208.957C586.737 209.412 586.646 209.915 586.671 210.42C586.696 210.924 586.835 211.414 587.075 211.843C587.315 212.272 587.649 212.627 588.046 212.874C588.443 213.122 588.889 213.254 589.344 213.259H595.876L590.425 200.954Z" fill="url(#paint12_linear_63_53)"/>
<path d="M451.727 284.259L503.188 251.271L506.15 256.967L454.689 289.955L451.727 284.259Z" fill="#24285B"/>
<path opacity="0.18" d="M574.613 478.041L591.281 509.329C591.281 509.329 651.716 476.815 669.038 388.83C686.359 300.844 629.213 335.133 629.213 335.133L574.613 478.041Z" fill="black"/>
<path d="M591.281 509.329C591.281 509.329 535.284 382.577 452.482 383.052C369.68 383.528 477.26 587.585 477.26 587.585L504.56 575.255C504.56 575.255 464.015 487.72 474.331 459.533C484.648 431.347 500.415 625.776 591.281 509.329Z" fill="url(#paint13_linear_63_53)"/>
<path d="M639.192 257.952C639.192 257.952 614.279 243.921 601.62 272.433C588.961 300.944 598.94 423.569 547.56 429.997C496.181 436.424 470.119 377 470.119 377C470.119 377 465.885 351.99 458.857 347.838C451.829 343.687 445.635 369.972 458.857 385.353C458.857 385.353 481.517 479.867 553.462 481.993C625.407 484.118 710.123 322.678 639.192 257.952Z" fill="url(#paint14_linear_63_53)"/>
<path d="M588.826 165.164C588.826 165.164 572.45 186.548 593.646 191.025C614.842 195.501 619.212 199.728 617.185 223.538C615.158 247.347 606.756 269.281 634.867 284.212C662.978 299.143 638.809 324.229 643.99 353.49C649.17 382.752 673.88 402.96 705.528 383.002C737.175 363.044 756.705 311.974 722.782 281.386C688.859 250.799 646.197 243.371 646.197 194.051C646.197 144.731 610.743 142.18 588.826 165.164Z" fill="url(#paint15_linear_63_53)"/>
<path opacity="0.43" d="M277.732 378.134C265.117 378.134 254.891 366.78 254.891 352.774C254.891 338.768 265.117 327.414 277.732 327.414C290.346 327.414 300.572 338.768 300.572 352.774C300.572 366.78 290.346 378.134 277.732 378.134Z" fill="#423AC8"/>
<path opacity="0.43" d="M240.768 313.908H280.48V358.001H240.768V313.908Z" fill="#6C10A6"/>
<path opacity="0.43" d="M198.173 313.908H227.794V386.988H198.173V313.908Z" fill="#80D1C8"/>
<path d="M453.392 383.696L474.376 374.812L478.894 387.969L457.91 396.853L453.392 383.696Z" fill="#3B10DE"/>
<path opacity="0.44" d="M453.392 383.696L474.376 374.812L478.894 387.969L457.91 396.853L453.392 383.696Z" fill="white"/>
<path d="M415.248 161.726C416.331 161.726 417.217 162.794 417.217 164.101V172.017C417.217 173.323 416.331 174.392 415.248 174.392H335.186C334.103 174.392 333.217 173.323 333.217 172.017V100.767C333.217 99.461 334.103 98.3922 335.186 98.3922H341.748C342.831 98.3922 343.717 99.461 343.717 100.767V161.726H415.248ZM394.363 117.293L380.467 128.476L366.473 105.972C365.636 104.627 363.93 104.726 363.208 106.17L348.967 134.809V155.392H411.967L397.218 118.223C396.693 116.937 395.348 116.502 394.363 117.293Z" fill="url(#paint16_linear_63_53)"/>
</g>
<defs>
<filter id="filter0_d_63_53" x="-4" y="0" width="909" height="762" filterUnits="userSpaceOnUse" color-interpolation-filters="sRGB">
<feFlood flood-opacity="0" result="BackgroundImageFix"/>
<feColorMatrix in="SourceAlpha" type="matrix" values="0 0 0 0 0 0 0 0 0 0 0 0 0 0 0 0 0 0 127 0" result="hardAlpha"/>
<feOffset dy="4"/>
<feGaussianBlur stdDeviation="2"/>
<feComposite in2="hardAlpha" operator="out"/>
<feColorMatrix type="matrix" values="0 0 0 0 1 0 0 0 0 1 0 0 0 0 1 0 0 0 0.74 0"/>
<feBlend mode="normal" in2="BackgroundImageFix" result="effect1_dropShadow_63_53"/>
<feBlend mode="normal" in="SourceGraphic" in2="effect1_dropShadow_63_53" result="shape"/>
</filter>
<linearGradient id="paint0_linear_63_53" x1="466.313" y1="561.9" x2="466.313" y2="651.786" gradientUnits="userSpaceOnUse">
<stop stop-color="#41C4FF"/>
<stop offset="1" stop-color="#88D2C9"/>
</linearGradient>
<linearGradient id="paint1_linear_63_53" x1="624.612" y1="337.684" x2="624.612" y2="614.339" gradientUnits="userSpaceOnUse">
<stop offset="0.46875" stop-color="#B154F0"/>
<stop offset="1" stop-color="#38D7F9"/>
</linearGradient>
<linearGradient id="paint2_linear_63_53" x1="351.123" y1="592.537" x2="351.123" y2="617.388" gradientUnits="userSpaceOnUse">
<stop stop-color="#FFBF1E"/>
<stop offset="0.651042" stop-color="#FCDCD0"/>
</linearGradient>
<linearGradient id="paint3_linear_63_53" x1="489.92" y1="573.98" x2="489.92" y2="614.432" gradientUnits="userSpaceOnUse">
<stop stop-color="#F29E6F"/>
<stop offset="0.651042" stop-color="#FCDCD0"/>
</linearGradient>
<linearGradient id="paint4_linear_63_53" x1="440.303" y1="434.523" x2="440.303" y2="598.19" gradientUnits="userSpaceOnUse">
<stop offset="0.359375" stop-color="#4D14AF"/>
<stop offset="1" stop-color="#AC54EA"/>
</linearGradient>
<linearGradient id="paint5_linear_63_53" x1="540.294" y1="254.021" x2="540.294" y2="416.287" gradientUnits="userSpaceOnUse">
<stop stop-color="#FFBF1E"/>
<stop offset="0.447917" stop-color="#84D2C8"/>
<stop offset="0.9375" stop-color="#BCD6CD"/>
</linearGradient>
<linearGradient id="paint6_linear_63_53" x1="430.664" y1="275.67" x2="497.109" y2="400.125" gradientUnits="userSpaceOnUse">
<stop stop-color="#6C10A6"/>
<stop offset="1" stop-color="#7DC5C7"/>
</linearGradient>
<linearGradient id="paint7_linear_63_53" x1="397.743" y1="61" x2="397.743" y2="188.101" gradientUnits="userSpaceOnUse">
<stop stop-color="#3002A2"/>
<stop offset="1" stop-color="#6C10A6"/>
</linearGradient>
<linearGradient id="paint8_linear_63_53" x1="250.826" y1="294" x2="250.826" y2="408.797" gradientUnits="userSpaceOnUse">
<stop offset="0.479167" stop-color="#26067E"/>
<stop offset="1" stop-color="#B154F0" stop-opacity="0.63"/>
</linearGradient>
<linearGradient id="paint9_linear_63_53" x1="436.351" y1="77.7068" x2="436.351" y2="120.074" gradientUnits="userSpaceOnUse">
<stop stop-color="#80D1C8"/>
<stop offset="1" stop-color="#FFBF1E"/>
</linearGradient>
<linearGradient id="paint10_linear_63_53" x1="619.956" y1="187.573" x2="619.956" y2="253.35" gradientUnits="userSpaceOnUse">
<stop stop-color="#4D14AF"/>
<stop offset="0.473958" stop-color="#82D1C8"/>
<stop offset="0.973958" stop-color="#E6E6E6"/>
</linearGradient>
<linearGradient id="paint11_linear_63_53" x1="604.786" y1="171.14" x2="604.786" y2="225.196" gradientUnits="userSpaceOnUse">
<stop offset="0.354167" stop-color="#FDE4A0"/>
<stop offset="0.557292" stop-color="#82D1C8"/>
<stop offset="0.786458" stop-color="#FCDCD2"/>
</linearGradient>
<linearGradient id="paint12_linear_63_53" x1="591.272" y1="200.954" x2="591.272" y2="213.259" gradientUnits="userSpaceOnUse">
<stop stop-color="#4D14AF"/>
<stop offset="0.473958" stop-color="#82D1C8"/>
<stop offset="0.973958" stop-color="#E6E6E6"/>
</linearGradient>
<linearGradient id="paint13_linear_63_53" x1="506.223" y1="383.051" x2="506.223" y2="587.585" gradientUnits="userSpaceOnUse">
<stop offset="0.515625" stop-color="#24285B"/>
<stop offset="1" stop-color="#7405BA"/>
</linearGradient>
<linearGradient id="paint14_linear_63_53" x1="558.51" y1="254.5" x2="558.51" y2="482.013" gradientUnits="userSpaceOnUse">
<stop stop-color="#FDE4A0"/>
<stop offset="0.520833" stop-color="#80D1C8"/>
<stop offset="1" stop-color="#FFBF1E"/>
</linearGradient>
<linearGradient id="paint15_linear_63_53" x1="661.684" y1="151.183" x2="661.684" y2="391.003" gradientUnits="userSpaceOnUse">
<stop offset="0.328125" stop-color="#7405BA"/>
<stop offset="1" stop-color="#3B10DE"/>
</linearGradient>
<linearGradient id="paint16_linear_63_53" x1="342.217" y1="104.392" x2="375.217" y2="174.392" gradientUnits="userSpaceOnUse">
<stop stop-color="#6D1DA9"/>
<stop offset="0.677083" stop-color="#82D1C8"/>
</linearGradient>
</defs>
</svg>
