<svg width="73" height="55" viewBox="0 0 73 55" fill="none" xmlns="http://www.w3.org/2000/svg">
<path d="M73 19.4293C73 22.8131 70.0558 25.7065 66.6125 25.7065H52.3759C54.7057 28.1483 54.9917 32.8344 51.4778 35.8677C53.515 39.1375 51.7839 43.4613 49.1324 44.7931C50.4119 51.8315 46.0034 55 38.7812 55C38.3897 55 36.8884 54.9709 36.5 54.9721C27.6643 54.9961 25.5366 50.5227 18.8587 49.4842C17.1944 49.2254 15.9688 47.7811 15.9688 46.0891V21.5218C15.9703 18.8912 17.4814 16.3813 20.0274 15.2417C24.1459 13.3806 33.6312 8.21806 35.3594 4.16682C36.4711 1.56091 38.4083 0.00114643 41.0625 5.99448e-07C45.9418 -0.00200461 49.2967 5.02706 47.3529 9.58318C46.842 10.7804 46.1678 11.9708 45.335 13.1522H66.6125C69.956 13.1522 73 16.0945 73 19.4293ZM13.6875 19.4792V46.9792C13.6875 48.8777 12.1555 50.4167 10.2656 50.4167H3.42188C1.532 50.4167 0 48.8777 0 46.9792V19.4792C0 17.5807 1.532 16.0417 3.42188 16.0417H10.2656C12.1555 16.0417 13.6875 17.5807 13.6875 19.4792ZM9.69531 43.5417C9.69531 41.9596 8.41867 40.6771 6.84375 40.6771C5.26883 40.6771 3.99219 41.9596 3.99219 43.5417C3.99219 45.1238 5.26883 46.4062 6.84375 46.4062C8.41867 46.4062 9.69531 45.1238 9.69531 43.5417Z" fill="white"/>
</svg>
