<svg width="72" height="72" viewBox="0 0 72 72" fill="none" xmlns="http://www.w3.org/2000/svg">
<path d="M36 0C16.1129 0 0 16.1129 0 36C0 55.8871 16.1129 72 36 72C55.8871 72 72 55.8871 72 36C72 16.1129 55.8871 0 36 0ZM56.9032 40.0645C56.9032 41.0226 56.1194 41.8064 55.1613 41.8064H41.8064V55.1613C41.8064 56.1194 41.0226 56.9032 40.0645 56.9032H31.9355C30.9774 56.9032 30.1935 56.1194 30.1935 55.1613V41.8064H16.8387C15.8806 41.8064 15.0968 41.0226 15.0968 40.0645V31.9355C15.0968 30.9774 15.8806 30.1935 16.8387 30.1935H30.1935V16.8387C30.1935 15.8806 30.9774 15.0968 31.9355 15.0968H40.0645C41.0226 15.0968 41.8064 15.8806 41.8064 16.8387V30.1935H55.1613C56.1194 30.1935 56.9032 30.9774 56.9032 31.9355V40.0645Z" fill="white"/>
</svg>
